<svg xmlns="http://www.w3.org/2000/svg" width="26.666666666666664cm" height="1.5cm">
    <rect x="0cm" y="0cm" width="26.666666666666664cm" height="1.5cm"
          style="stroke: black; stroke-width: 1; fill: none;"/>

    <text x="0.5cm" y="1.4249999999999998cm" font-size="12" >Tactical (1in for 10ft)</text>
    <line x1="1.6666666666666665cm" y1="0.0cm" x2="1.6666666666666665cm" y2="0.75cm" style="stroke: black; stroke-width: 1;"/>
    <line x1="3.333333333333333cm" y1="0.0cm" x2="3.333333333333333cm" y2="0.75cm" style="stroke: black; stroke-width: 1;"/>
    <line x1="5.0cm" y1="0.0cm" x2="5.0cm" y2="0.75cm" style="stroke: black; stroke-width: 1;"/>
    <line x1="6.666666666666666cm" y1="0.0cm" x2="6.666666666666666cm" y2="0.75cm" style="stroke: black; stroke-width: 1;"/>
    <line x1="8.333333333333332cm" y1="0.0cm" x2="8.333333333333332cm" y2="0.75cm" style="stroke: black; stroke-width: 1;"/>
    <line x1="10.0cm" y1="0.0cm" x2="10.0cm" y2="0.75cm" style="stroke: black; stroke-width: 1;"/>
    <line x1="11.666666666666666cm" y1="0.0cm" x2="11.666666666666666cm" y2="0.75cm" style="stroke: black; stroke-width: 1;"/>
    <line x1="13.333333333333332cm" y1="0.0cm" x2="13.333333333333332cm" y2="0.75cm" style="stroke: black; stroke-width: 1;"/>
    <line x1="14.999999999999998cm" y1="0.0cm" x2="14.999999999999998cm" y2="0.75cm" style="stroke: black; stroke-width: 1;"/>
    <line x1="16.666666666666664cm" y1="0.0cm" x2="16.666666666666664cm" y2="0.75cm" style="stroke: black; stroke-width: 1;"/>
    <line x1="18.333333333333332cm" y1="0.0cm" x2="18.333333333333332cm" y2="0.75cm" style="stroke: black; stroke-width: 1;"/>
    <line x1="20.0cm" y1="0.0cm" x2="20.0cm" y2="0.75cm" style="stroke: black; stroke-width: 1;"/>
    <line x1="21.666666666666664cm" y1="0.0cm" x2="21.666666666666664cm" y2="0.75cm" style="stroke: black; stroke-width: 1;"/>
    <line x1="23.333333333333332cm" y1="0.0cm" x2="23.333333333333332cm" y2="0.75cm" style="stroke: black; stroke-width: 1;"/>
    <line x1="24.999999999999996cm" y1="0.0cm" x2="24.999999999999996cm" y2="0.75cm" style="stroke: black; stroke-width: 1;"/>
    <text x="1.6666666666666665cm" y="1.125cm" font-size="12" text-anchor="end">1m</text>
    <text x="3.333333333333333cm" y="1.125cm" font-size="12" text-anchor="end">2m</text>
    <text x="5.0cm" y="1.125cm" font-size="12" text-anchor="end">3m</text>
    <text x="6.666666666666666cm" y="1.125cm" font-size="12" text-anchor="end">4m</text>
    <text x="8.333333333333332cm" y="1.125cm" font-size="12" text-anchor="end">5m</text>
    <text x="10.0cm" y="1.125cm" font-size="12" text-anchor="end">6m</text>
    <text x="11.666666666666666cm" y="1.125cm" font-size="12" text-anchor="end">7m</text>
    <text x="13.333333333333332cm" y="1.125cm" font-size="12" text-anchor="end">8m</text>
    <text x="14.999999999999998cm" y="1.125cm" font-size="12" text-anchor="end">9m</text>
    <text x="16.666666666666664cm" y="1.125cm" font-size="12" text-anchor="end">10m</text>
    <text x="18.333333333333332cm" y="1.125cm" font-size="12" text-anchor="end">11m</text>
    <text x="20.0cm" y="1.125cm" font-size="12" text-anchor="end">12m</text>
    <text x="21.666666666666664cm" y="1.125cm" font-size="12" text-anchor="end">13m</text>
    <text x="23.333333333333332cm" y="1.125cm" font-size="12" text-anchor="end">14m</text>
    <text x="24.999999999999996cm" y="1.125cm" font-size="12" text-anchor="end">15m</text>
    <text x="26.666666666666664cm" y="1.125cm" font-size="12" text-anchor="end">16m</text>
    <line x1="0.8333333333333333cm" y1="0.0cm" x2="0.8333333333333333cm" y2="0.375cm" style="stroke: black; stroke-width: 1;"/>
    <line x1="2.5cm" y1="0.0cm" x2="2.5cm" y2="0.375cm" style="stroke: black; stroke-width: 1;"/>
    <line x1="4.166666666666666cm" y1="0.0cm" x2="4.166666666666666cm" y2="0.375cm" style="stroke: black; stroke-width: 1;"/>
    <line x1="5.833333333333333cm" y1="0.0cm" x2="5.833333333333333cm" y2="0.375cm" style="stroke: black; stroke-width: 1;"/>
    <line x1="7.499999999999999cm" y1="0.0cm" x2="7.499999999999999cm" y2="0.375cm" style="stroke: black; stroke-width: 1;"/>
    <line x1="9.166666666666666cm" y1="0.0cm" x2="9.166666666666666cm" y2="0.375cm" style="stroke: black; stroke-width: 1;"/>
    <line x1="10.833333333333332cm" y1="0.0cm" x2="10.833333333333332cm" y2="0.375cm" style="stroke: black; stroke-width: 1;"/>
    <line x1="12.499999999999998cm" y1="0.0cm" x2="12.499999999999998cm" y2="0.375cm" style="stroke: black; stroke-width: 1;"/>
    <line x1="14.166666666666666cm" y1="0.0cm" x2="14.166666666666666cm" y2="0.375cm" style="stroke: black; stroke-width: 1;"/>
    <line x1="15.833333333333332cm" y1="0.0cm" x2="15.833333333333332cm" y2="0.375cm" style="stroke: black; stroke-width: 1;"/>
    <line x1="17.5cm" y1="0.0cm" x2="17.5cm" y2="0.375cm" style="stroke: black; stroke-width: 1;"/>
    <line x1="19.166666666666664cm" y1="0.0cm" x2="19.166666666666664cm" y2="0.375cm" style="stroke: black; stroke-width: 1;"/>
    <line x1="20.833333333333332cm" y1="0.0cm" x2="20.833333333333332cm" y2="0.375cm" style="stroke: black; stroke-width: 1;"/>
    <line x1="22.499999999999996cm" y1="0.0cm" x2="22.499999999999996cm" y2="0.375cm" style="stroke: black; stroke-width: 1;"/>
    <line x1="24.166666666666664cm" y1="0.0cm" x2="24.166666666666664cm" y2="0.375cm" style="stroke: black; stroke-width: 1;"/>
    <line x1="25.833333333333332cm" y1="0.0cm" x2="25.833333333333332cm" y2="0.375cm" style="stroke: black; stroke-width: 1;"/>
    <line x1="0.16666666666666666cm" y1="0.0cm" x2="0.16666666666666666cm" y2="0.1875cm" style="stroke: black; stroke-width: 1;"/>
    <line x1="0.3333333333333333cm" y1="0.0cm" x2="0.3333333333333333cm" y2="0.1875cm" style="stroke: black; stroke-width: 1;"/>
    <line x1="0.5cm" y1="0.0cm" x2="0.5cm" y2="0.1875cm" style="stroke: black; stroke-width: 1;"/>
    <line x1="0.6666666666666666cm" y1="0.0cm" x2="0.6666666666666666cm" y2="0.1875cm" style="stroke: black; stroke-width: 1;"/>
    <line x1="0.8333333333333333cm" y1="0.0cm" x2="0.8333333333333333cm" y2="0.1875cm" style="stroke: black; stroke-width: 1;"/>
    <line x1="1.0cm" y1="0.0cm" x2="1.0cm" y2="0.1875cm" style="stroke: black; stroke-width: 1;"/>
    <line x1="1.1666666666666665cm" y1="0.0cm" x2="1.1666666666666665cm" y2="0.1875cm" style="stroke: black; stroke-width: 1;"/>
    <line x1="1.3333333333333333cm" y1="0.0cm" x2="1.3333333333333333cm" y2="0.1875cm" style="stroke: black; stroke-width: 1;"/>
    <line x1="1.4999999999999998cm" y1="0.0cm" x2="1.4999999999999998cm" y2="0.1875cm" style="stroke: black; stroke-width: 1;"/>
    <line x1="1.8333333333333333cm" y1="0.0cm" x2="1.8333333333333333cm" y2="0.1875cm" style="stroke: black; stroke-width: 1;"/>
    <line x1="2.0cm" y1="0.0cm" x2="2.0cm" y2="0.1875cm" style="stroke: black; stroke-width: 1;"/>
    <line x1="2.1666666666666665cm" y1="0.0cm" x2="2.1666666666666665cm" y2="0.1875cm" style="stroke: black; stroke-width: 1;"/>
    <line x1="2.333333333333333cm" y1="0.0cm" x2="2.333333333333333cm" y2="0.1875cm" style="stroke: black; stroke-width: 1;"/>
    <line x1="2.4999999999999996cm" y1="0.0cm" x2="2.4999999999999996cm" y2="0.1875cm" style="stroke: black; stroke-width: 1;"/>
    <line x1="2.6666666666666665cm" y1="0.0cm" x2="2.6666666666666665cm" y2="0.1875cm" style="stroke: black; stroke-width: 1;"/>
    <line x1="2.833333333333333cm" y1="0.0cm" x2="2.833333333333333cm" y2="0.1875cm" style="stroke: black; stroke-width: 1;"/>
    <line x1="2.9999999999999996cm" y1="0.0cm" x2="2.9999999999999996cm" y2="0.1875cm" style="stroke: black; stroke-width: 1;"/>
    <line x1="3.1666666666666665cm" y1="0.0cm" x2="3.1666666666666665cm" y2="0.1875cm" style="stroke: black; stroke-width: 1;"/>
    <line x1="3.5cm" y1="0.0cm" x2="3.5cm" y2="0.1875cm" style="stroke: black; stroke-width: 1;"/>
    <line x1="3.6666666666666665cm" y1="0.0cm" x2="3.6666666666666665cm" y2="0.1875cm" style="stroke: black; stroke-width: 1;"/>
    <line x1="3.833333333333333cm" y1="0.0cm" x2="3.833333333333333cm" y2="0.1875cm" style="stroke: black; stroke-width: 1;"/>
    <line x1="4.0cm" y1="0.0cm" x2="4.0cm" y2="0.1875cm" style="stroke: black; stroke-width: 1;"/>
    <line x1="4.166666666666666cm" y1="0.0cm" x2="4.166666666666666cm" y2="0.1875cm" style="stroke: black; stroke-width: 1;"/>
    <line x1="4.333333333333333cm" y1="0.0cm" x2="4.333333333333333cm" y2="0.1875cm" style="stroke: black; stroke-width: 1;"/>
    <line x1="4.499999999999999cm" y1="0.0cm" x2="4.499999999999999cm" y2="0.1875cm" style="stroke: black; stroke-width: 1;"/>
    <line x1="4.666666666666666cm" y1="0.0cm" x2="4.666666666666666cm" y2="0.1875cm" style="stroke: black; stroke-width: 1;"/>
    <line x1="4.833333333333333cm" y1="0.0cm" x2="4.833333333333333cm" y2="0.1875cm" style="stroke: black; stroke-width: 1;"/>
    <line x1="5.166666666666666cm" y1="0.0cm" x2="5.166666666666666cm" y2="0.1875cm" style="stroke: black; stroke-width: 1;"/>
    <line x1="5.333333333333333cm" y1="0.0cm" x2="5.333333333333333cm" y2="0.1875cm" style="stroke: black; stroke-width: 1;"/>
    <line x1="5.499999999999999cm" y1="0.0cm" x2="5.499999999999999cm" y2="0.1875cm" style="stroke: black; stroke-width: 1;"/>
    <line x1="5.666666666666666cm" y1="0.0cm" x2="5.666666666666666cm" y2="0.1875cm" style="stroke: black; stroke-width: 1;"/>
    <line x1="5.833333333333333cm" y1="0.0cm" x2="5.833333333333333cm" y2="0.1875cm" style="stroke: black; stroke-width: 1;"/>
    <line x1="5.999999999999999cm" y1="0.0cm" x2="5.999999999999999cm" y2="0.1875cm" style="stroke: black; stroke-width: 1;"/>
    <line x1="6.166666666666666cm" y1="0.0cm" x2="6.166666666666666cm" y2="0.1875cm" style="stroke: black; stroke-width: 1;"/>
    <line x1="6.333333333333333cm" y1="0.0cm" x2="6.333333333333333cm" y2="0.1875cm" style="stroke: black; stroke-width: 1;"/>
    <line x1="6.5cm" y1="0.0cm" x2="6.5cm" y2="0.1875cm" style="stroke: black; stroke-width: 1;"/>
    <line x1="6.833333333333333cm" y1="0.0cm" x2="6.833333333333333cm" y2="0.1875cm" style="stroke: black; stroke-width: 1;"/>
    <line x1="7.0cm" y1="0.0cm" x2="7.0cm" y2="0.1875cm" style="stroke: black; stroke-width: 1;"/>
    <line x1="7.166666666666666cm" y1="0.0cm" x2="7.166666666666666cm" y2="0.1875cm" style="stroke: black; stroke-width: 1;"/>
    <line x1="7.333333333333333cm" y1="0.0cm" x2="7.333333333333333cm" y2="0.1875cm" style="stroke: black; stroke-width: 1;"/>
    <line x1="7.5cm" y1="0.0cm" x2="7.5cm" y2="0.1875cm" style="stroke: black; stroke-width: 1;"/>
    <line x1="7.666666666666666cm" y1="0.0cm" x2="7.666666666666666cm" y2="0.1875cm" style="stroke: black; stroke-width: 1;"/>
    <line x1="7.833333333333333cm" y1="0.0cm" x2="7.833333333333333cm" y2="0.1875cm" style="stroke: black; stroke-width: 1;"/>
    <line x1="8.0cm" y1="0.0cm" x2="8.0cm" y2="0.1875cm" style="stroke: black; stroke-width: 1;"/>
    <line x1="8.166666666666666cm" y1="0.0cm" x2="8.166666666666666cm" y2="0.1875cm" style="stroke: black; stroke-width: 1;"/>
    <line x1="8.499999999999998cm" y1="0.0cm" x2="8.499999999999998cm" y2="0.1875cm" style="stroke: black; stroke-width: 1;"/>
    <line x1="8.666666666666666cm" y1="0.0cm" x2="8.666666666666666cm" y2="0.1875cm" style="stroke: black; stroke-width: 1;"/>
    <line x1="8.833333333333332cm" y1="0.0cm" x2="8.833333333333332cm" y2="0.1875cm" style="stroke: black; stroke-width: 1;"/>
    <line x1="8.999999999999998cm" y1="0.0cm" x2="8.999999999999998cm" y2="0.1875cm" style="stroke: black; stroke-width: 1;"/>
    <line x1="9.166666666666666cm" y1="0.0cm" x2="9.166666666666666cm" y2="0.1875cm" style="stroke: black; stroke-width: 1;"/>
    <line x1="9.333333333333332cm" y1="0.0cm" x2="9.333333333333332cm" y2="0.1875cm" style="stroke: black; stroke-width: 1;"/>
    <line x1="9.499999999999998cm" y1="0.0cm" x2="9.499999999999998cm" y2="0.1875cm" style="stroke: black; stroke-width: 1;"/>
    <line x1="9.666666666666666cm" y1="0.0cm" x2="9.666666666666666cm" y2="0.1875cm" style="stroke: black; stroke-width: 1;"/>
    <line x1="9.833333333333332cm" y1="0.0cm" x2="9.833333333333332cm" y2="0.1875cm" style="stroke: black; stroke-width: 1;"/>
    <line x1="10.166666666666666cm" y1="0.0cm" x2="10.166666666666666cm" y2="0.1875cm" style="stroke: black; stroke-width: 1;"/>
    <line x1="10.333333333333332cm" y1="0.0cm" x2="10.333333333333332cm" y2="0.1875cm" style="stroke: black; stroke-width: 1;"/>
    <line x1="10.499999999999998cm" y1="0.0cm" x2="10.499999999999998cm" y2="0.1875cm" style="stroke: black; stroke-width: 1;"/>
    <line x1="10.666666666666666cm" y1="0.0cm" x2="10.666666666666666cm" y2="0.1875cm" style="stroke: black; stroke-width: 1;"/>
    <line x1="10.833333333333332cm" y1="0.0cm" x2="10.833333333333332cm" y2="0.1875cm" style="stroke: black; stroke-width: 1;"/>
    <line x1="10.999999999999998cm" y1="0.0cm" x2="10.999999999999998cm" y2="0.1875cm" style="stroke: black; stroke-width: 1;"/>
    <line x1="11.166666666666666cm" y1="0.0cm" x2="11.166666666666666cm" y2="0.1875cm" style="stroke: black; stroke-width: 1;"/>
    <line x1="11.333333333333332cm" y1="0.0cm" x2="11.333333333333332cm" y2="0.1875cm" style="stroke: black; stroke-width: 1;"/>
    <line x1="11.499999999999998cm" y1="0.0cm" x2="11.499999999999998cm" y2="0.1875cm" style="stroke: black; stroke-width: 1;"/>
    <line x1="11.833333333333332cm" y1="0.0cm" x2="11.833333333333332cm" y2="0.1875cm" style="stroke: black; stroke-width: 1;"/>
    <line x1="11.999999999999998cm" y1="0.0cm" x2="11.999999999999998cm" y2="0.1875cm" style="stroke: black; stroke-width: 1;"/>
    <line x1="12.166666666666666cm" y1="0.0cm" x2="12.166666666666666cm" y2="0.1875cm" style="stroke: black; stroke-width: 1;"/>
    <line x1="12.333333333333332cm" y1="0.0cm" x2="12.333333333333332cm" y2="0.1875cm" style="stroke: black; stroke-width: 1;"/>
    <line x1="12.499999999999998cm" y1="0.0cm" x2="12.499999999999998cm" y2="0.1875cm" style="stroke: black; stroke-width: 1;"/>
    <line x1="12.666666666666666cm" y1="0.0cm" x2="12.666666666666666cm" y2="0.1875cm" style="stroke: black; stroke-width: 1;"/>
    <line x1="12.833333333333332cm" y1="0.0cm" x2="12.833333333333332cm" y2="0.1875cm" style="stroke: black; stroke-width: 1;"/>
    <line x1="13.0cm" y1="0.0cm" x2="13.0cm" y2="0.1875cm" style="stroke: black; stroke-width: 1;"/>
    <line x1="13.166666666666666cm" y1="0.0cm" x2="13.166666666666666cm" y2="0.1875cm" style="stroke: black; stroke-width: 1;"/>
    <line x1="13.5cm" y1="0.0cm" x2="13.5cm" y2="0.1875cm" style="stroke: black; stroke-width: 1;"/>
    <line x1="13.666666666666666cm" y1="0.0cm" x2="13.666666666666666cm" y2="0.1875cm" style="stroke: black; stroke-width: 1;"/>
    <line x1="13.833333333333332cm" y1="0.0cm" x2="13.833333333333332cm" y2="0.1875cm" style="stroke: black; stroke-width: 1;"/>
    <line x1="14.0cm" y1="0.0cm" x2="14.0cm" y2="0.1875cm" style="stroke: black; stroke-width: 1;"/>
    <line x1="14.166666666666666cm" y1="0.0cm" x2="14.166666666666666cm" y2="0.1875cm" style="stroke: black; stroke-width: 1;"/>
    <line x1="14.333333333333332cm" y1="0.0cm" x2="14.333333333333332cm" y2="0.1875cm" style="stroke: black; stroke-width: 1;"/>
    <line x1="14.5cm" y1="0.0cm" x2="14.5cm" y2="0.1875cm" style="stroke: black; stroke-width: 1;"/>
    <line x1="14.666666666666666cm" y1="0.0cm" x2="14.666666666666666cm" y2="0.1875cm" style="stroke: black; stroke-width: 1;"/>
    <line x1="14.833333333333332cm" y1="0.0cm" x2="14.833333333333332cm" y2="0.1875cm" style="stroke: black; stroke-width: 1;"/>
    <line x1="15.166666666666666cm" y1="0.0cm" x2="15.166666666666666cm" y2="0.1875cm" style="stroke: black; stroke-width: 1;"/>
    <line x1="15.333333333333332cm" y1="0.0cm" x2="15.333333333333332cm" y2="0.1875cm" style="stroke: black; stroke-width: 1;"/>
    <line x1="15.5cm" y1="0.0cm" x2="15.5cm" y2="0.1875cm" style="stroke: black; stroke-width: 1;"/>
    <line x1="15.666666666666666cm" y1="0.0cm" x2="15.666666666666666cm" y2="0.1875cm" style="stroke: black; stroke-width: 1;"/>
    <line x1="15.833333333333332cm" y1="0.0cm" x2="15.833333333333332cm" y2="0.1875cm" style="stroke: black; stroke-width: 1;"/>
    <line x1="16.0cm" y1="0.0cm" x2="16.0cm" y2="0.1875cm" style="stroke: black; stroke-width: 1;"/>
    <line x1="16.166666666666664cm" y1="0.0cm" x2="16.166666666666664cm" y2="0.1875cm" style="stroke: black; stroke-width: 1;"/>
    <line x1="16.333333333333332cm" y1="0.0cm" x2="16.333333333333332cm" y2="0.1875cm" style="stroke: black; stroke-width: 1;"/>
    <line x1="16.499999999999996cm" y1="0.0cm" x2="16.499999999999996cm" y2="0.1875cm" style="stroke: black; stroke-width: 1;"/>
    <line x1="16.833333333333332cm" y1="0.0cm" x2="16.833333333333332cm" y2="0.1875cm" style="stroke: black; stroke-width: 1;"/>
    <line x1="16.999999999999996cm" y1="0.0cm" x2="16.999999999999996cm" y2="0.1875cm" style="stroke: black; stroke-width: 1;"/>
    <line x1="17.166666666666664cm" y1="0.0cm" x2="17.166666666666664cm" y2="0.1875cm" style="stroke: black; stroke-width: 1;"/>
    <line x1="17.333333333333332cm" y1="0.0cm" x2="17.333333333333332cm" y2="0.1875cm" style="stroke: black; stroke-width: 1;"/>
    <line x1="17.499999999999996cm" y1="0.0cm" x2="17.499999999999996cm" y2="0.1875cm" style="stroke: black; stroke-width: 1;"/>
    <line x1="17.666666666666664cm" y1="0.0cm" x2="17.666666666666664cm" y2="0.1875cm" style="stroke: black; stroke-width: 1;"/>
    <line x1="17.833333333333332cm" y1="0.0cm" x2="17.833333333333332cm" y2="0.1875cm" style="stroke: black; stroke-width: 1;"/>
    <line x1="17.999999999999996cm" y1="0.0cm" x2="17.999999999999996cm" y2="0.1875cm" style="stroke: black; stroke-width: 1;"/>
    <line x1="18.166666666666664cm" y1="0.0cm" x2="18.166666666666664cm" y2="0.1875cm" style="stroke: black; stroke-width: 1;"/>
    <line x1="18.499999999999996cm" y1="0.0cm" x2="18.499999999999996cm" y2="0.1875cm" style="stroke: black; stroke-width: 1;"/>
    <line x1="18.666666666666664cm" y1="0.0cm" x2="18.666666666666664cm" y2="0.1875cm" style="stroke: black; stroke-width: 1;"/>
    <line x1="18.833333333333332cm" y1="0.0cm" x2="18.833333333333332cm" y2="0.1875cm" style="stroke: black; stroke-width: 1;"/>
    <line x1="18.999999999999996cm" y1="0.0cm" x2="18.999999999999996cm" y2="0.1875cm" style="stroke: black; stroke-width: 1;"/>
    <line x1="19.166666666666664cm" y1="0.0cm" x2="19.166666666666664cm" y2="0.1875cm" style="stroke: black; stroke-width: 1;"/>
    <line x1="19.333333333333332cm" y1="0.0cm" x2="19.333333333333332cm" y2="0.1875cm" style="stroke: black; stroke-width: 1;"/>
    <line x1="19.499999999999996cm" y1="0.0cm" x2="19.499999999999996cm" y2="0.1875cm" style="stroke: black; stroke-width: 1;"/>
    <line x1="19.666666666666664cm" y1="0.0cm" x2="19.666666666666664cm" y2="0.1875cm" style="stroke: black; stroke-width: 1;"/>
    <line x1="19.833333333333332cm" y1="0.0cm" x2="19.833333333333332cm" y2="0.1875cm" style="stroke: black; stroke-width: 1;"/>
    <line x1="20.166666666666664cm" y1="0.0cm" x2="20.166666666666664cm" y2="0.1875cm" style="stroke: black; stroke-width: 1;"/>
    <line x1="20.333333333333332cm" y1="0.0cm" x2="20.333333333333332cm" y2="0.1875cm" style="stroke: black; stroke-width: 1;"/>
    <line x1="20.499999999999996cm" y1="0.0cm" x2="20.499999999999996cm" y2="0.1875cm" style="stroke: black; stroke-width: 1;"/>
    <line x1="20.666666666666664cm" y1="0.0cm" x2="20.666666666666664cm" y2="0.1875cm" style="stroke: black; stroke-width: 1;"/>
    <line x1="20.833333333333332cm" y1="0.0cm" x2="20.833333333333332cm" y2="0.1875cm" style="stroke: black; stroke-width: 1;"/>
    <line x1="20.999999999999996cm" y1="0.0cm" x2="20.999999999999996cm" y2="0.1875cm" style="stroke: black; stroke-width: 1;"/>
    <line x1="21.166666666666664cm" y1="0.0cm" x2="21.166666666666664cm" y2="0.1875cm" style="stroke: black; stroke-width: 1;"/>
    <line x1="21.333333333333332cm" y1="0.0cm" x2="21.333333333333332cm" y2="0.1875cm" style="stroke: black; stroke-width: 1;"/>
    <line x1="21.499999999999996cm" y1="0.0cm" x2="21.499999999999996cm" y2="0.1875cm" style="stroke: black; stroke-width: 1;"/>
    <line x1="21.833333333333332cm" y1="0.0cm" x2="21.833333333333332cm" y2="0.1875cm" style="stroke: black; stroke-width: 1;"/>
    <line x1="21.999999999999996cm" y1="0.0cm" x2="21.999999999999996cm" y2="0.1875cm" style="stroke: black; stroke-width: 1;"/>
    <line x1="22.166666666666664cm" y1="0.0cm" x2="22.166666666666664cm" y2="0.1875cm" style="stroke: black; stroke-width: 1;"/>
    <line x1="22.333333333333332cm" y1="0.0cm" x2="22.333333333333332cm" y2="0.1875cm" style="stroke: black; stroke-width: 1;"/>
    <line x1="22.499999999999996cm" y1="0.0cm" x2="22.499999999999996cm" y2="0.1875cm" style="stroke: black; stroke-width: 1;"/>
    <line x1="22.666666666666664cm" y1="0.0cm" x2="22.666666666666664cm" y2="0.1875cm" style="stroke: black; stroke-width: 1;"/>
    <line x1="22.833333333333332cm" y1="0.0cm" x2="22.833333333333332cm" y2="0.1875cm" style="stroke: black; stroke-width: 1;"/>
    <line x1="22.999999999999996cm" y1="0.0cm" x2="22.999999999999996cm" y2="0.1875cm" style="stroke: black; stroke-width: 1;"/>
    <line x1="23.166666666666664cm" y1="0.0cm" x2="23.166666666666664cm" y2="0.1875cm" style="stroke: black; stroke-width: 1;"/>
    <line x1="23.499999999999996cm" y1="0.0cm" x2="23.499999999999996cm" y2="0.1875cm" style="stroke: black; stroke-width: 1;"/>
    <line x1="23.666666666666664cm" y1="0.0cm" x2="23.666666666666664cm" y2="0.1875cm" style="stroke: black; stroke-width: 1;"/>
    <line x1="23.833333333333332cm" y1="0.0cm" x2="23.833333333333332cm" y2="0.1875cm" style="stroke: black; stroke-width: 1;"/>
    <line x1="23.999999999999996cm" y1="0.0cm" x2="23.999999999999996cm" y2="0.1875cm" style="stroke: black; stroke-width: 1;"/>
    <line x1="24.166666666666664cm" y1="0.0cm" x2="24.166666666666664cm" y2="0.1875cm" style="stroke: black; stroke-width: 1;"/>
    <line x1="24.333333333333332cm" y1="0.0cm" x2="24.333333333333332cm" y2="0.1875cm" style="stroke: black; stroke-width: 1;"/>
    <line x1="24.499999999999996cm" y1="0.0cm" x2="24.499999999999996cm" y2="0.1875cm" style="stroke: black; stroke-width: 1;"/>
    <line x1="24.666666666666664cm" y1="0.0cm" x2="24.666666666666664cm" y2="0.1875cm" style="stroke: black; stroke-width: 1;"/>
    <line x1="24.833333333333332cm" y1="0.0cm" x2="24.833333333333332cm" y2="0.1875cm" style="stroke: black; stroke-width: 1;"/>
    <line x1="25.166666666666664cm" y1="0.0cm" x2="25.166666666666664cm" y2="0.1875cm" style="stroke: black; stroke-width: 1;"/>
    <line x1="25.333333333333332cm" y1="0.0cm" x2="25.333333333333332cm" y2="0.1875cm" style="stroke: black; stroke-width: 1;"/>
    <line x1="25.499999999999996cm" y1="0.0cm" x2="25.499999999999996cm" y2="0.1875cm" style="stroke: black; stroke-width: 1;"/>
    <line x1="25.666666666666664cm" y1="0.0cm" x2="25.666666666666664cm" y2="0.1875cm" style="stroke: black; stroke-width: 1;"/>
    <line x1="25.833333333333332cm" y1="0.0cm" x2="25.833333333333332cm" y2="0.1875cm" style="stroke: black; stroke-width: 1;"/>
    <line x1="26.0cm" y1="0.0cm" x2="26.0cm" y2="0.1875cm" style="stroke: black; stroke-width: 1;"/>
    <line x1="26.166666666666664cm" y1="0.0cm" x2="26.166666666666664cm" y2="0.1875cm" style="stroke: black; stroke-width: 1;"/>
    <line x1="26.333333333333332cm" y1="0.0cm" x2="26.333333333333332cm" y2="0.1875cm" style="stroke: black; stroke-width: 1;"/>
    <line x1="26.5cm" y1="0.0cm" x2="26.5cm" y2="0.1875cm" style="stroke: black; stroke-width: 1;"/>
</svg>
